<?xml version="1.0" encoding="UTF-8"?>
<svg id="Layer_1" data-name="Layer 1" xmlns="http://www.w3.org/2000/svg" xmlns:xlink="http://www.w3.org/1999/xlink" viewBox="0 0 595.28 439.24">
  <defs>
    <style>
      .cls-1 {
        fill: url(#radial-gradient);
      }

      .cls-2 {
        opacity: .49;
      }

      .cls-3 {
        fill: #007ba7;
      }

      .cls-4 {
        opacity: .1;
      }
    </style>
    <radialGradient id="radial-gradient" cx="113.19" cy="-112.18" fx="113.19" fy="-112.18" r="486.72" gradientTransform="translate(0 189.46) scale(1 .66)" gradientUnits="userSpaceOnUse">
      <stop offset="0" stop-color="#4ec8f4"/>
      <stop offset="1" stop-color="#fff" stop-opacity="0"/>
    </radialGradient>
  </defs>
  <path class="cls-1" d="M595.28,115.55c0,178.77-201.53,323.69-472.87,323.69S-368.89,294.32-368.89,115.55-148.93-208.14,122.41-208.14,595.28-63.22,595.28,115.55Z"/>
  <path class="cls-3" d="M185.34,27.67c2.23,80.71-63.63,150.1-144.81,150.6-83.74,1.56-146.59-68.97-146.23-150.6.26-79.61,66.36-146.24,146.23-145.61,79.87-.24,144.94,66.02,144.81,145.61h0ZM184.76,27.67c.84-78.6-65.9-144.16-144.23-143.43-89.68-.25-158.68,83.22-139.78,171.24,11.09,54.82,59.17,96.75,112.81,107.74,86.16,17.96,169.58-46.95,171.2-135.54h0Z"/>
  <g class="cls-2">
    <path class="cls-3" d="M230.3,27.67c-.1,37.22-11.65,74.25-32.97,104.77-49.35,72.27-147.32,100.3-227.75,66.55-68.18-27.37-115.53-97.79-114.92-171.31-1.01-101.64,84.35-186.93,185.88-186.64,102.64-.86,190.51,83.11,189.77,186.64h0ZM221.49,27.67c.57-71.83-44.09-141.79-110.71-169.62C-9.98-193.21-144.3-103.23-144.32,27.67c.72,164.56,198.25,248.2,314.15,129.3,33.05-34.32,52.05-81.68,51.66-129.3h0Z"/>
  </g>
  <g class="cls-4">
    <path class="cls-3" d="M269.96,27.67c1.18,93.32-58.63,182.88-145.85,216.67-100.68,40.58-217.44,3.26-276.04-88.07-59.63-90.45-47.6-215.02,29.91-291.15C24.64-278.44,267.82-177.44,269.96,27.67h0ZM269.92,27.67c.21-162.88-166.73-273.99-317.02-211.58C-196.77-122.22-236.71,74.94-119.79,187.99c63.16,61.9,159.14,82.33,241.87,51.08,87.03-31.36,148.59-118.64,147.84-211.4h0Z"/>
  </g>
</svg>